solid OpenSCAD_Model
  facet normal 0 0 -1
    outer loop
      vertex 61.9098 25.8779 0
      vertex 38.0902 25.8779 0
      vertex 61.9098 39.1221 0
    endloop
  endfacet
  facet normal 0 0 -1
    outer loop
      vertex 60.8645 40.9326 0
      vertex 39.7815 42.9209 0
      vertex 40 45 0
    endloop
  endfacet
  facet normal 0 0 -1
    outer loop
      vertex 38.0902 39.1221 0
      vertex 61.9098 39.1221 0
      vertex 38.0902 25.8779 0
    endloop
  endfacet
  facet normal 0 0 -1
    outer loop
      vertex 60.8645 40.9326 0
      vertex 39.1355 40.9326 0
      vertex 39.7815 42.9209 0
    endloop
  endfacet
  facet normal 0 0 -1
    outer loop
      vertex 61.9098 39.1221 0
      vertex 38.0902 39.1221 0
      vertex 60.8645 40.9326 0
    endloop
  endfacet
  facet normal -0 0 -1
    outer loop
      vertex 60.8645 40.9326 0
      vertex 38.0902 39.1221 0
      vertex 39.1355 40.9326 0
    endloop
  endfacet
  facet normal 0 0 -1
    outer loop
      vertex 36.6913 27.4314 0
      vertex 38.0902 39.1221 0
      vertex 38.0902 25.8779 0
    endloop
  endfacet
  facet normal 0 0 -1
    outer loop
      vertex 36.6913 27.4314 0
      vertex 36.6913 37.5686 0
      vertex 38.0902 39.1221 0
    endloop
  endfacet
  facet normal 0 0 -1
    outer loop
      vertex 35 28.6603 0
      vertex 36.6913 37.5686 0
      vertex 36.6913 27.4314 0
    endloop
  endfacet
  facet normal 0 0 -1
    outer loop
      vertex 35 28.6603 0
      vertex 35 36.3397 0
      vertex 36.6913 37.5686 0
    endloop
  endfacet
  facet normal 0 0 -1
    outer loop
      vertex 33.0902 29.5106 0
      vertex 35 36.3397 0
      vertex 35 28.6603 0
    endloop
  endfacet
  facet normal 0 0 -1
    outer loop
      vertex 33.0902 29.5106 0
      vertex 33.0902 35.4894 0
      vertex 35 36.3397 0
    endloop
  endfacet
  facet normal 0 0 -1
    outer loop
      vertex 31.0453 29.9452 0
      vertex 33.0902 35.4894 0
      vertex 33.0902 29.5106 0
    endloop
  endfacet
  facet normal 0 0 -1
    outer loop
      vertex 31.0453 29.9452 0
      vertex 31.0453 35.0548 0
      vertex 33.0902 35.4894 0
    endloop
  endfacet
  facet normal 0 0 -1
    outer loop
      vertex 28.9547 29.9452 0
      vertex 31.0453 35.0548 0
      vertex 31.0453 29.9452 0
    endloop
  endfacet
  facet normal 0 0 -1
    outer loop
      vertex 28.9547 29.9452 0
      vertex 28.9547 35.0548 0
      vertex 31.0453 35.0548 0
    endloop
  endfacet
  facet normal 0 0 -1
    outer loop
      vertex 26.9098 29.5106 0
      vertex 28.9547 35.0548 0
      vertex 28.9547 29.9452 0
    endloop
  endfacet
  facet normal 0 0 -1
    outer loop
      vertex 26.9098 29.5106 0
      vertex 26.9098 35.4894 0
      vertex 28.9547 35.0548 0
    endloop
  endfacet
  facet normal 0 0 -1
    outer loop
      vertex 25 28.6603 0
      vertex 26.9098 35.4894 0
      vertex 26.9098 29.5106 0
    endloop
  endfacet
  facet normal 0 0 -1
    outer loop
      vertex 25 28.6603 0
      vertex 25 36.3397 0
      vertex 26.9098 35.4894 0
    endloop
  endfacet
  facet normal 0 0 -1
    outer loop
      vertex 23.3087 27.4314 0
      vertex 25 36.3397 0
      vertex 25 28.6603 0
    endloop
  endfacet
  facet normal 0 0 -1
    outer loop
      vertex 23.3087 27.4314 0
      vertex 23.3087 37.5686 0
      vertex 25 36.3397 0
    endloop
  endfacet
  facet normal 0 0 -1
    outer loop
      vertex 10 35 0
      vertex 23.3087 27.4314 0
      vertex 21.9098 25.8779 0
    endloop
  endfacet
  facet normal 0 0 -1
    outer loop
      vertex 23.3087 27.4314 0
      vertex 10 35 0
      vertex 23.3087 37.5686 0
    endloop
  endfacet
  facet normal 0 0 -1
    outer loop
      vertex 10 35 0
      vertex 21.9098 25.8779 0
      vertex 20.8645 24.0674 0
    endloop
  endfacet
  facet normal -0 0 -1
    outer loop
      vertex 23.3087 37.5686 0
      vertex 10 35 0
      vertex 21.9098 39.1221 0
    endloop
  endfacet
  facet normal 0 0 -1
    outer loop
      vertex 10 35 0
      vertex 20.8645 24.0674 0
      vertex 20.2185 22.0791 0
    endloop
  endfacet
  facet normal -0 0 -1
    outer loop
      vertex 21.9098 39.1221 0
      vertex 10 35 0
      vertex 20.8645 40.9326 0
    endloop
  endfacet
  facet normal 0 0 -1
    outer loop
      vertex 10 15 0
      vertex 20.2185 22.0791 0
      vertex 20 20 0
    endloop
  endfacet
  facet normal -0 0 -1
    outer loop
      vertex 20.8645 40.9326 0
      vertex 10 35 0
      vertex 20.2185 42.9209 0
    endloop
  endfacet
  facet normal 0 0 -1
    outer loop
      vertex 79.7815 42.9209 0
      vertex 90 65 0
      vertex 79.7815 22.0791 0
    endloop
  endfacet
  facet normal 0 0 -1
    outer loop
      vertex 90 65 0
      vertex 79.7815 42.9209 0
      vertex 80 45 0
    endloop
  endfacet
  facet normal 0 0 -1
    outer loop
      vertex 79.1355 24.0674 0
      vertex 79.7815 42.9209 0
      vertex 79.7815 22.0791 0
    endloop
  endfacet
  facet normal 0 0 -1
    outer loop
      vertex 79.1355 24.0674 0
      vertex 79.1355 40.9326 0
      vertex 79.7815 42.9209 0
    endloop
  endfacet
  facet normal 0 0 -1
    outer loop
      vertex 78.0902 25.8779 0
      vertex 79.1355 40.9326 0
      vertex 79.1355 24.0674 0
    endloop
  endfacet
  facet normal 0 0 -1
    outer loop
      vertex 78.0902 25.8779 0
      vertex 78.0902 39.1221 0
      vertex 79.1355 40.9326 0
    endloop
  endfacet
  facet normal 0 0 -1
    outer loop
      vertex 76.6913 27.4314 0
      vertex 78.0902 39.1221 0
      vertex 78.0902 25.8779 0
    endloop
  endfacet
  facet normal 0 0 -1
    outer loop
      vertex 76.6913 27.4314 0
      vertex 76.6913 37.5686 0
      vertex 78.0902 39.1221 0
    endloop
  endfacet
  facet normal 0 0 -1
    outer loop
      vertex 75 28.6603 0
      vertex 76.6913 37.5686 0
      vertex 76.6913 27.4314 0
    endloop
  endfacet
  facet normal 0 0 -1
    outer loop
      vertex 75 28.6603 0
      vertex 75 36.3397 0
      vertex 76.6913 37.5686 0
    endloop
  endfacet
  facet normal 0 0 -1
    outer loop
      vertex 73.0902 29.5106 0
      vertex 75 36.3397 0
      vertex 75 28.6603 0
    endloop
  endfacet
  facet normal 0 0 -1
    outer loop
      vertex 73.0902 29.5106 0
      vertex 73.0902 35.4894 0
      vertex 75 36.3397 0
    endloop
  endfacet
  facet normal 0 0 -1
    outer loop
      vertex 71.0453 29.9452 0
      vertex 73.0902 35.4894 0
      vertex 73.0902 29.5106 0
    endloop
  endfacet
  facet normal 0 0 -1
    outer loop
      vertex 71.0453 29.9452 0
      vertex 71.0453 35.0548 0
      vertex 73.0902 35.4894 0
    endloop
  endfacet
  facet normal 0 0 -1
    outer loop
      vertex 68.9547 29.9452 0
      vertex 71.0453 35.0548 0
      vertex 71.0453 29.9452 0
    endloop
  endfacet
  facet normal 0 0 -1
    outer loop
      vertex 68.9547 29.9452 0
      vertex 68.9547 35.0548 0
      vertex 71.0453 35.0548 0
    endloop
  endfacet
  facet normal 0 0 -1
    outer loop
      vertex 66.9098 29.5106 0
      vertex 68.9547 35.0548 0
      vertex 68.9547 29.9452 0
    endloop
  endfacet
  facet normal 0 0 -1
    outer loop
      vertex 66.9098 29.5106 0
      vertex 66.9098 35.4894 0
      vertex 68.9547 35.0548 0
    endloop
  endfacet
  facet normal 0 0 -1
    outer loop
      vertex 65 28.6603 0
      vertex 66.9098 35.4894 0
      vertex 66.9098 29.5106 0
    endloop
  endfacet
  facet normal 0 0 -1
    outer loop
      vertex 65 28.6603 0
      vertex 65 36.3397 0
      vertex 66.9098 35.4894 0
    endloop
  endfacet
  facet normal 0 0 -1
    outer loop
      vertex 63.3087 27.4314 0
      vertex 65 36.3397 0
      vertex 65 28.6603 0
    endloop
  endfacet
  facet normal 0 0 -1
    outer loop
      vertex 63.3087 27.4314 0
      vertex 63.3087 37.5686 0
      vertex 65 36.3397 0
    endloop
  endfacet
  facet normal 0 0 -1
    outer loop
      vertex 61.9098 25.8779 0
      vertex 63.3087 37.5686 0
      vertex 63.3087 27.4314 0
    endloop
  endfacet
  facet normal 0 0 -1
    outer loop
      vertex 61.9098 25.8779 0
      vertex 61.9098 39.1221 0
      vertex 63.3087 37.5686 0
    endloop
  endfacet
  facet normal 0 0 -1
    outer loop
      vertex 39.1355 24.0674 0
      vertex 60.8645 24.0674 0
      vertex 39.7815 22.0791 0
    endloop
  endfacet
  facet normal 0 0 -1
    outer loop
      vertex 60.8645 24.0674 0
      vertex 39.1355 24.0674 0
      vertex 61.9098 25.8779 0
    endloop
  endfacet
  facet normal 0 0 -1
    outer loop
      vertex 39.7815 22.0791 0
      vertex 60.2185 22.0791 0
      vertex 40 20 0
    endloop
  endfacet
  facet normal 0 0 -1
    outer loop
      vertex 60.2185 22.0791 0
      vertex 39.7815 22.0791 0
      vertex 60.8645 24.0674 0
    endloop
  endfacet
  facet normal 0 0 -1
    outer loop
      vertex 40 20 0
      vertex 60.2185 22.0791 0
      vertex 60 20 0
    endloop
  endfacet
  facet normal 0 0 -1
    outer loop
      vertex 38.0902 25.8779 0
      vertex 61.9098 25.8779 0
      vertex 39.1355 24.0674 0
    endloop
  endfacet
  facet normal 0 0 -1
    outer loop
      vertex 79.7815 22.0791 0
      vertex 90 0 0
      vertex 80 20 0
    endloop
  endfacet
  facet normal 0 0 -1
    outer loop
      vertex 90 0 0
      vertex 79.7815 17.9209 0
      vertex 80 20 0
    endloop
  endfacet
  facet normal 0 0 -1
    outer loop
      vertex 90 0 0
      vertex 79.1355 15.9326 0
      vertex 79.7815 17.9209 0
    endloop
  endfacet
  facet normal 0 0 -1
    outer loop
      vertex 90 0 0
      vertex 78.0902 14.1221 0
      vertex 79.1355 15.9326 0
    endloop
  endfacet
  facet normal 0 0 -1
    outer loop
      vertex 90 0 0
      vertex 76.6913 12.5686 0
      vertex 78.0902 14.1221 0
    endloop
  endfacet
  facet normal 0 0 -1
    outer loop
      vertex 90 0 0
      vertex 75 11.3397 0
      vertex 76.6913 12.5686 0
    endloop
  endfacet
  facet normal 0 0 -1
    outer loop
      vertex 90 0 0
      vertex 73.0902 10.4894 0
      vertex 75 11.3397 0
    endloop
  endfacet
  facet normal 0 0 -1
    outer loop
      vertex 90 0 0
      vertex 71.0453 10.0548 0
      vertex 73.0902 10.4894 0
    endloop
  endfacet
  facet normal 0 0 -1
    outer loop
      vertex 90 0 0
      vertex 68.9547 10.0548 0
      vertex 71.0453 10.0548 0
    endloop
  endfacet
  facet normal 0 0 -1
    outer loop
      vertex 90 0 0
      vertex 66.9098 10.4894 0
      vertex 68.9547 10.0548 0
    endloop
  endfacet
  facet normal 0 0 -1
    outer loop
      vertex 33.0902 10.4894 0
      vertex 66.9098 10.4894 0
      vertex 90 0 0
    endloop
  endfacet
  facet normal 0 0 -1
    outer loop
      vertex 60.8645 40.9326 0
      vertex 40 45 0
      vertex 60.2185 42.9209 0
    endloop
  endfacet
  facet normal 0 0 -1
    outer loop
      vertex 60.2185 17.9209 0
      vertex 40 20 0
      vertex 60 20 0
    endloop
  endfacet
  facet normal 0 0 -1
    outer loop
      vertex 39.7815 17.9209 0
      vertex 60.2185 17.9209 0
      vertex 60.8645 15.9326 0
    endloop
  endfacet
  facet normal 0 0 -1
    outer loop
      vertex 39.1355 15.9326 0
      vertex 60.8645 15.9326 0
      vertex 61.9098 14.1221 0
    endloop
  endfacet
  facet normal 0 0 -1
    outer loop
      vertex 38.0902 14.1221 0
      vertex 61.9098 14.1221 0
      vertex 63.3087 12.5686 0
    endloop
  endfacet
  facet normal 0 0 -1
    outer loop
      vertex 36.6913 12.5686 0
      vertex 63.3087 12.5686 0
      vertex 65 11.3397 0
    endloop
  endfacet
  facet normal 0 0 -1
    outer loop
      vertex 66.9098 10.4894 0
      vertex 33.0902 10.4894 0
      vertex 65 11.3397 0
    endloop
  endfacet
  facet normal 0 0 -1
    outer loop
      vertex 60.2185 17.9209 0
      vertex 39.7815 17.9209 0
      vertex 40 20 0
    endloop
  endfacet
  facet normal 0 0 -1
    outer loop
      vertex 60.8645 15.9326 0
      vertex 39.1355 15.9326 0
      vertex 39.7815 17.9209 0
    endloop
  endfacet
  facet normal 0 0 -1
    outer loop
      vertex 61.9098 14.1221 0
      vertex 38.0902 14.1221 0
      vertex 39.1355 15.9326 0
    endloop
  endfacet
  facet normal 0 0 -1
    outer loop
      vertex 63.3087 12.5686 0
      vertex 36.6913 12.5686 0
      vertex 38.0902 14.1221 0
    endloop
  endfacet
  facet normal 0 0 -1
    outer loop
      vertex 65 11.3397 0
      vertex 35 11.3397 0
      vertex 36.6913 12.5686 0
    endloop
  endfacet
  facet normal -0 0 -1
    outer loop
      vertex 65 11.3397 0
      vertex 33.0902 10.4894 0
      vertex 35 11.3397 0
    endloop
  endfacet
  facet normal 0 0 -1
    outer loop
      vertex 90 0 0
      vertex 31.0453 10.0548 0
      vertex 33.0902 10.4894 0
    endloop
  endfacet
  facet normal 0 0 -1
    outer loop
      vertex 0 0 0
      vertex 31.0453 10.0548 0
      vertex 90 0 0
    endloop
  endfacet
  facet normal -0 0 -1
    outer loop
      vertex 20.2185 42.9209 0
      vertex 10 35 0
      vertex 20 45 0
    endloop
  endfacet
  facet normal -0 0 -1
    outer loop
      vertex 20.2185 22.0791 0
      vertex 10 15 0
      vertex 10 35 0
    endloop
  endfacet
  facet normal -0 0 -1
    outer loop
      vertex 20.2185 17.9209 0
      vertex 10 15 0
      vertex 20 20 0
    endloop
  endfacet
  facet normal -0 0 -1
    outer loop
      vertex 20.8645 15.9326 0
      vertex 10 15 0
      vertex 20.2185 17.9209 0
    endloop
  endfacet
  facet normal 0 0 -1
    outer loop
      vertex 21.9098 14.1221 0
      vertex 10 15 0
      vertex 20.8645 15.9326 0
    endloop
  endfacet
  facet normal 0 0 -1
    outer loop
      vertex 23.3087 12.5686 0
      vertex 10 15 0
      vertex 21.9098 14.1221 0
    endloop
  endfacet
  facet normal 0 0 -1
    outer loop
      vertex 0 0 0
      vertex 23.3087 12.5686 0
      vertex 25 11.3397 0
    endloop
  endfacet
  facet normal 0 0 -1
    outer loop
      vertex 0 0 0
      vertex 25 11.3397 0
      vertex 26.9098 10.4894 0
    endloop
  endfacet
  facet normal -0 0 -1
    outer loop
      vertex 31.0453 10.0548 0
      vertex 0 0 0
      vertex 28.9547 10.0548 0
    endloop
  endfacet
  facet normal 0 0 -1
    outer loop
      vertex 0 0 0
      vertex 26.9098 10.4894 0
      vertex 28.9547 10.0548 0
    endloop
  endfacet
  facet normal -0 0 -1
    outer loop
      vertex 23.3087 12.5686 0
      vertex 0 0 0
      vertex 10 15 0
    endloop
  endfacet
  facet normal -0 0 -1
    outer loop
      vertex 10 15 0
      vertex 0 0 0
      vertex 0 20 0
    endloop
  endfacet
  facet normal 0 0 -1
    outer loop
      vertex 90 0 0
      vertex 79.7815 22.0791 0
      vertex 90 65 0
    endloop
  endfacet
  facet normal 0 0 -1
    outer loop
      vertex 79.7815 47.0791 0
      vertex 90 65 0
      vertex 80 45 0
    endloop
  endfacet
  facet normal 0 0 -1
    outer loop
      vertex 79.1355 49.0674 0
      vertex 90 65 0
      vertex 79.7815 47.0791 0
    endloop
  endfacet
  facet normal 0 0 -1
    outer loop
      vertex 78.0902 50.8779 0
      vertex 90 65 0
      vertex 79.1355 49.0674 0
    endloop
  endfacet
  facet normal 0 0 -1
    outer loop
      vertex 76.6913 52.4314 0
      vertex 90 65 0
      vertex 78.0902 50.8779 0
    endloop
  endfacet
  facet normal 0 0 -1
    outer loop
      vertex 75 53.6603 0
      vertex 90 65 0
      vertex 76.6913 52.4314 0
    endloop
  endfacet
  facet normal 0 0 -1
    outer loop
      vertex 73.0902 54.5106 0
      vertex 90 65 0
      vertex 75 53.6603 0
    endloop
  endfacet
  facet normal 0 0 -1
    outer loop
      vertex 71.0453 54.9452 0
      vertex 90 65 0
      vertex 73.0902 54.5106 0
    endloop
  endfacet
  facet normal 0 0 -1
    outer loop
      vertex 68.9547 54.9452 0
      vertex 90 65 0
      vertex 71.0453 54.9452 0
    endloop
  endfacet
  facet normal 0 0 -1
    outer loop
      vertex 66.9098 54.5106 0
      vertex 90 65 0
      vertex 68.9547 54.9452 0
    endloop
  endfacet
  facet normal 0 0 -1
    outer loop
      vertex 20 65 0
      vertex 66.9098 54.5106 0
      vertex 65 53.6603 0
    endloop
  endfacet
  facet normal 0 0 -1
    outer loop
      vertex 60.2185 42.9209 0
      vertex 40 45 0
      vertex 60 45 0
    endloop
  endfacet
  facet normal 0 0 -1
    outer loop
      vertex 60 45 0
      vertex 40 45 0
      vertex 60.2185 47.0791 0
    endloop
  endfacet
  facet normal 0 0 -1
    outer loop
      vertex 39.7815 47.0791 0
      vertex 60.2185 47.0791 0
      vertex 40 45 0
    endloop
  endfacet
  facet normal 0 0 -1
    outer loop
      vertex 60.2185 47.0791 0
      vertex 39.7815 47.0791 0
      vertex 60.8645 49.0674 0
    endloop
  endfacet
  facet normal 0 0 -1
    outer loop
      vertex 39.1355 49.0674 0
      vertex 60.8645 49.0674 0
      vertex 39.7815 47.0791 0
    endloop
  endfacet
  facet normal 0 0 -1
    outer loop
      vertex 60.8645 49.0674 0
      vertex 39.1355 49.0674 0
      vertex 61.9098 50.8779 0
    endloop
  endfacet
  facet normal 0 0 -1
    outer loop
      vertex 38.0902 50.8779 0
      vertex 61.9098 50.8779 0
      vertex 39.1355 49.0674 0
    endloop
  endfacet
  facet normal 0 0 -1
    outer loop
      vertex 61.9098 50.8779 0
      vertex 38.0902 50.8779 0
      vertex 63.3087 52.4314 0
    endloop
  endfacet
  facet normal 0 0 -1
    outer loop
      vertex 36.6913 52.4314 0
      vertex 63.3087 52.4314 0
      vertex 38.0902 50.8779 0
    endloop
  endfacet
  facet normal 0 0 -1
    outer loop
      vertex 63.3087 52.4314 0
      vertex 36.6913 52.4314 0
      vertex 65 53.6603 0
    endloop
  endfacet
  facet normal 0 0 -1
    outer loop
      vertex 35 53.6603 0
      vertex 65 53.6603 0
      vertex 36.6913 52.4314 0
    endloop
  endfacet
  facet normal 0 0 -1
    outer loop
      vertex 20 65 0
      vertex 65 53.6603 0
      vertex 35 53.6603 0
    endloop
  endfacet
  facet normal 0 0 -1
    outer loop
      vertex 20 65 0
      vertex 35 53.6603 0
      vertex 33.0902 54.5106 0
    endloop
  endfacet
  facet normal 0 0 -1
    outer loop
      vertex 20 65 0
      vertex 33.0902 54.5106 0
      vertex 31.0453 54.9452 0
    endloop
  endfacet
  facet normal 0 0 -1
    outer loop
      vertex 20 65 0
      vertex 31.0453 54.9452 0
      vertex 28.9547 54.9452 0
    endloop
  endfacet
  facet normal 0 0 -1
    outer loop
      vertex 66.9098 54.5106 0
      vertex 20 65 0
      vertex 90 65 0
    endloop
  endfacet
  facet normal 0 0 -1
    outer loop
      vertex 26.9098 54.5106 0
      vertex 20 65 0
      vertex 28.9547 54.9452 0
    endloop
  endfacet
  facet normal 0 0 -1
    outer loop
      vertex 25 53.6603 0
      vertex 20 65 0
      vertex 26.9098 54.5106 0
    endloop
  endfacet
  facet normal 0 0 -1
    outer loop
      vertex 23.3087 52.4314 0
      vertex 20 65 0
      vertex 25 53.6603 0
    endloop
  endfacet
  facet normal 0 0 -1
    outer loop
      vertex 21.9098 50.8779 0
      vertex 20 65 0
      vertex 23.3087 52.4314 0
    endloop
  endfacet
  facet normal 0 0 -1
    outer loop
      vertex 20.8645 49.0674 0
      vertex 20 65 0
      vertex 21.9098 50.8779 0
    endloop
  endfacet
  facet normal 0 0 -1
    outer loop
      vertex 20.2185 47.0791 0
      vertex 20 65 0
      vertex 20.8645 49.0674 0
    endloop
  endfacet
  facet normal 0 0 -1
    outer loop
      vertex 20 65 0
      vertex 20.2185 47.0791 0
      vertex 20 45 0
    endloop
  endfacet
  facet normal 0 0 -1
    outer loop
      vertex 0 50 0
      vertex 20 45 0
      vertex 10 35 0
    endloop
  endfacet
  facet normal 0 0 -1
    outer loop
      vertex 0 50 0
      vertex 10 35 0
      vertex 0 30 0
    endloop
  endfacet
  facet normal 0 0 -1
    outer loop
      vertex 20 45 0
      vertex 0 50 0
      vertex 20 65 0
    endloop
  endfacet
  facet normal 0 0 1
    outer loop
      vertex 61.9098 39.1221 3
      vertex 38.0902 39.1221 3
      vertex 61.9098 25.8779 3
    endloop
  endfacet
  facet normal 0 0 1
    outer loop
      vertex 60.8645 24.0674 3
      vertex 39.7815 22.0791 3
      vertex 40 20 3
    endloop
  endfacet
  facet normal 0 0 1
    outer loop
      vertex 38.0902 25.8779 3
      vertex 61.9098 25.8779 3
      vertex 38.0902 39.1221 3
    endloop
  endfacet
  facet normal 0 0 1
    outer loop
      vertex 60.8645 24.0674 3
      vertex 39.1355 24.0674 3
      vertex 39.7815 22.0791 3
    endloop
  endfacet
  facet normal 0 0 1
    outer loop
      vertex 61.9098 25.8779 3
      vertex 38.0902 25.8779 3
      vertex 60.8645 24.0674 3
    endloop
  endfacet
  facet normal 0 0 1
    outer loop
      vertex 60.8645 24.0674 3
      vertex 38.0902 25.8779 3
      vertex 39.1355 24.0674 3
    endloop
  endfacet
  facet normal -0 0 1
    outer loop
      vertex 36.6913 37.5686 3
      vertex 38.0902 25.8779 3
      vertex 38.0902 39.1221 3
    endloop
  endfacet
  facet normal 0 0 1
    outer loop
      vertex 36.6913 37.5686 3
      vertex 36.6913 27.4314 3
      vertex 38.0902 25.8779 3
    endloop
  endfacet
  facet normal -0 0 1
    outer loop
      vertex 35 36.3397 3
      vertex 36.6913 27.4314 3
      vertex 36.6913 37.5686 3
    endloop
  endfacet
  facet normal 0 0 1
    outer loop
      vertex 35 36.3397 3
      vertex 35 28.6603 3
      vertex 36.6913 27.4314 3
    endloop
  endfacet
  facet normal -0 0 1
    outer loop
      vertex 33.0902 35.4894 3
      vertex 35 28.6603 3
      vertex 35 36.3397 3
    endloop
  endfacet
  facet normal 0 0 1
    outer loop
      vertex 33.0902 35.4894 3
      vertex 33.0902 29.5106 3
      vertex 35 28.6603 3
    endloop
  endfacet
  facet normal -0 0 1
    outer loop
      vertex 31.0453 35.0548 3
      vertex 33.0902 29.5106 3
      vertex 33.0902 35.4894 3
    endloop
  endfacet
  facet normal 0 0 1
    outer loop
      vertex 31.0453 35.0548 3
      vertex 31.0453 29.9452 3
      vertex 33.0902 29.5106 3
    endloop
  endfacet
  facet normal -0 0 1
    outer loop
      vertex 28.9547 35.0548 3
      vertex 31.0453 29.9452 3
      vertex 31.0453 35.0548 3
    endloop
  endfacet
  facet normal 0 0 1
    outer loop
      vertex 28.9547 35.0548 3
      vertex 28.9547 29.9452 3
      vertex 31.0453 29.9452 3
    endloop
  endfacet
  facet normal 0 0 1
    outer loop
      vertex 26.9098 35.4894 3
      vertex 28.9547 29.9452 3
      vertex 28.9547 35.0548 3
    endloop
  endfacet
  facet normal 0 0 1
    outer loop
      vertex 26.9098 35.4894 3
      vertex 26.9098 29.5106 3
      vertex 28.9547 29.9452 3
    endloop
  endfacet
  facet normal 0 0 1
    outer loop
      vertex 25 36.3397 3
      vertex 26.9098 29.5106 3
      vertex 26.9098 35.4894 3
    endloop
  endfacet
  facet normal 0 0 1
    outer loop
      vertex 25 36.3397 3
      vertex 25 28.6603 3
      vertex 26.9098 29.5106 3
    endloop
  endfacet
  facet normal 0 0 1
    outer loop
      vertex 23.3087 37.5686 3
      vertex 25 28.6603 3
      vertex 25 36.3397 3
    endloop
  endfacet
  facet normal 0 0 1
    outer loop
      vertex 23.3087 37.5686 3
      vertex 23.3087 27.4314 3
      vertex 25 28.6603 3
    endloop
  endfacet
  facet normal 0 0 1
    outer loop
      vertex 10 35 3
      vertex 23.3087 37.5686 3
      vertex 21.9098 39.1221 3
    endloop
  endfacet
  facet normal 0 0 1
    outer loop
      vertex 23.3087 37.5686 3
      vertex 10 35 3
      vertex 23.3087 27.4314 3
    endloop
  endfacet
  facet normal 0 0 1
    outer loop
      vertex 10 35 3
      vertex 21.9098 39.1221 3
      vertex 20.8645 40.9326 3
    endloop
  endfacet
  facet normal 0 0 1
    outer loop
      vertex 23.3087 27.4314 3
      vertex 10 35 3
      vertex 21.9098 25.8779 3
    endloop
  endfacet
  facet normal 0 0 1
    outer loop
      vertex 10 35 3
      vertex 20.8645 40.9326 3
      vertex 20.2185 42.9209 3
    endloop
  endfacet
  facet normal 0 0 1
    outer loop
      vertex 21.9098 25.8779 3
      vertex 10 35 3
      vertex 20.8645 24.0674 3
    endloop
  endfacet
  facet normal 0 0 1
    outer loop
      vertex 10 35 3
      vertex 20.2185 42.9209 3
      vertex 20 45 3
    endloop
  endfacet
  facet normal 0 0 1
    outer loop
      vertex 20.8645 24.0674 3
      vertex 10 35 3
      vertex 20.2185 22.0791 3
    endloop
  endfacet
  facet normal -0 0 1
    outer loop
      vertex 79.7815 22.0791 3
      vertex 90 0 3
      vertex 79.7815 42.9209 3
    endloop
  endfacet
  facet normal 0 0 1
    outer loop
      vertex 90 0 3
      vertex 79.7815 22.0791 3
      vertex 80 20 3
    endloop
  endfacet
  facet normal -0 0 1
    outer loop
      vertex 79.1355 40.9326 3
      vertex 79.7815 22.0791 3
      vertex 79.7815 42.9209 3
    endloop
  endfacet
  facet normal 0 0 1
    outer loop
      vertex 79.1355 40.9326 3
      vertex 79.1355 24.0674 3
      vertex 79.7815 22.0791 3
    endloop
  endfacet
  facet normal -0 0 1
    outer loop
      vertex 78.0902 39.1221 3
      vertex 79.1355 24.0674 3
      vertex 79.1355 40.9326 3
    endloop
  endfacet
  facet normal 0 0 1
    outer loop
      vertex 78.0902 39.1221 3
      vertex 78.0902 25.8779 3
      vertex 79.1355 24.0674 3
    endloop
  endfacet
  facet normal -0 0 1
    outer loop
      vertex 76.6913 37.5686 3
      vertex 78.0902 25.8779 3
      vertex 78.0902 39.1221 3
    endloop
  endfacet
  facet normal 0 0 1
    outer loop
      vertex 76.6913 37.5686 3
      vertex 76.6913 27.4314 3
      vertex 78.0902 25.8779 3
    endloop
  endfacet
  facet normal -0 0 1
    outer loop
      vertex 75 36.3397 3
      vertex 76.6913 27.4314 3
      vertex 76.6913 37.5686 3
    endloop
  endfacet
  facet normal 0 0 1
    outer loop
      vertex 75 36.3397 3
      vertex 75 28.6603 3
      vertex 76.6913 27.4314 3
    endloop
  endfacet
  facet normal -0 0 1
    outer loop
      vertex 73.0902 35.4894 3
      vertex 75 28.6603 3
      vertex 75 36.3397 3
    endloop
  endfacet
  facet normal 0 0 1
    outer loop
      vertex 73.0902 35.4894 3
      vertex 73.0902 29.5106 3
      vertex 75 28.6603 3
    endloop
  endfacet
  facet normal -0 0 1
    outer loop
      vertex 71.0453 35.0548 3
      vertex 73.0902 29.5106 3
      vertex 73.0902 35.4894 3
    endloop
  endfacet
  facet normal 0 0 1
    outer loop
      vertex 71.0453 35.0548 3
      vertex 71.0453 29.9452 3
      vertex 73.0902 29.5106 3
    endloop
  endfacet
  facet normal -0 0 1
    outer loop
      vertex 68.9547 35.0548 3
      vertex 71.0453 29.9452 3
      vertex 71.0453 35.0548 3
    endloop
  endfacet
  facet normal 0 0 1
    outer loop
      vertex 68.9547 35.0548 3
      vertex 68.9547 29.9452 3
      vertex 71.0453 29.9452 3
    endloop
  endfacet
  facet normal 0 0 1
    outer loop
      vertex 66.9098 35.4894 3
      vertex 68.9547 29.9452 3
      vertex 68.9547 35.0548 3
    endloop
  endfacet
  facet normal 0 0 1
    outer loop
      vertex 66.9098 35.4894 3
      vertex 66.9098 29.5106 3
      vertex 68.9547 29.9452 3
    endloop
  endfacet
  facet normal 0 0 1
    outer loop
      vertex 65 36.3397 3
      vertex 66.9098 29.5106 3
      vertex 66.9098 35.4894 3
    endloop
  endfacet
  facet normal 0 0 1
    outer loop
      vertex 65 36.3397 3
      vertex 65 28.6603 3
      vertex 66.9098 29.5106 3
    endloop
  endfacet
  facet normal 0 0 1
    outer loop
      vertex 63.3087 37.5686 3
      vertex 65 28.6603 3
      vertex 65 36.3397 3
    endloop
  endfacet
  facet normal 0 0 1
    outer loop
      vertex 63.3087 37.5686 3
      vertex 63.3087 27.4314 3
      vertex 65 28.6603 3
    endloop
  endfacet
  facet normal 0 0 1
    outer loop
      vertex 61.9098 39.1221 3
      vertex 63.3087 27.4314 3
      vertex 63.3087 37.5686 3
    endloop
  endfacet
  facet normal 0 0 1
    outer loop
      vertex 61.9098 39.1221 3
      vertex 61.9098 25.8779 3
      vertex 63.3087 27.4314 3
    endloop
  endfacet
  facet normal 0 0 1
    outer loop
      vertex 39.1355 40.9326 3
      vertex 60.8645 40.9326 3
      vertex 39.7815 42.9209 3
    endloop
  endfacet
  facet normal 0 0 1
    outer loop
      vertex 60.8645 40.9326 3
      vertex 39.1355 40.9326 3
      vertex 61.9098 39.1221 3
    endloop
  endfacet
  facet normal 0 0 1
    outer loop
      vertex 39.7815 42.9209 3
      vertex 60.2185 42.9209 3
      vertex 40 45 3
    endloop
  endfacet
  facet normal 0 0 1
    outer loop
      vertex 60.2185 42.9209 3
      vertex 39.7815 42.9209 3
      vertex 60.8645 40.9326 3
    endloop
  endfacet
  facet normal -0 0 1
    outer loop
      vertex 40 45 3
      vertex 60.2185 42.9209 3
      vertex 60 45 3
    endloop
  endfacet
  facet normal 0 0 1
    outer loop
      vertex 38.0902 39.1221 3
      vertex 61.9098 39.1221 3
      vertex 39.1355 40.9326 3
    endloop
  endfacet
  facet normal 0 0 1
    outer loop
      vertex 79.7815 42.9209 3
      vertex 90 65 3
      vertex 80 45 3
    endloop
  endfacet
  facet normal 0 0 1
    outer loop
      vertex 90 65 3
      vertex 79.7815 47.0791 3
      vertex 80 45 3
    endloop
  endfacet
  facet normal 0 0 1
    outer loop
      vertex 90 65 3
      vertex 79.1355 49.0674 3
      vertex 79.7815 47.0791 3
    endloop
  endfacet
  facet normal 0 0 1
    outer loop
      vertex 90 65 3
      vertex 78.0902 50.8779 3
      vertex 79.1355 49.0674 3
    endloop
  endfacet
  facet normal 0 0 1
    outer loop
      vertex 90 65 3
      vertex 76.6913 52.4314 3
      vertex 78.0902 50.8779 3
    endloop
  endfacet
  facet normal 0 0 1
    outer loop
      vertex 90 65 3
      vertex 75 53.6603 3
      vertex 76.6913 52.4314 3
    endloop
  endfacet
  facet normal 0 0 1
    outer loop
      vertex 90 65 3
      vertex 73.0902 54.5106 3
      vertex 75 53.6603 3
    endloop
  endfacet
  facet normal 0 0 1
    outer loop
      vertex 90 65 3
      vertex 71.0453 54.9452 3
      vertex 73.0902 54.5106 3
    endloop
  endfacet
  facet normal 0 0 1
    outer loop
      vertex 90 65 3
      vertex 68.9547 54.9452 3
      vertex 71.0453 54.9452 3
    endloop
  endfacet
  facet normal 0 0 1
    outer loop
      vertex 90 65 3
      vertex 66.9098 54.5106 3
      vertex 68.9547 54.9452 3
    endloop
  endfacet
  facet normal -0 0 1
    outer loop
      vertex 20 65 3
      vertex 66.9098 54.5106 3
      vertex 90 65 3
    endloop
  endfacet
  facet normal 0 0 1
    outer loop
      vertex 60.8645 24.0674 3
      vertex 40 20 3
      vertex 60.2185 22.0791 3
    endloop
  endfacet
  facet normal 0 0 1
    outer loop
      vertex 60.2185 47.0791 3
      vertex 40 45 3
      vertex 60 45 3
    endloop
  endfacet
  facet normal 0 0 1
    outer loop
      vertex 39.7815 47.0791 3
      vertex 60.2185 47.0791 3
      vertex 60.8645 49.0674 3
    endloop
  endfacet
  facet normal 0 0 1
    outer loop
      vertex 39.1355 49.0674 3
      vertex 60.8645 49.0674 3
      vertex 61.9098 50.8779 3
    endloop
  endfacet
  facet normal 0 0 1
    outer loop
      vertex 38.0902 50.8779 3
      vertex 61.9098 50.8779 3
      vertex 63.3087 52.4314 3
    endloop
  endfacet
  facet normal 0 0 1
    outer loop
      vertex 36.6913 52.4314 3
      vertex 63.3087 52.4314 3
      vertex 65 53.6603 3
    endloop
  endfacet
  facet normal 0 0 1
    outer loop
      vertex 66.9098 54.5106 3
      vertex 20 65 3
      vertex 65 53.6603 3
    endloop
  endfacet
  facet normal 0 0 1
    outer loop
      vertex 60.2185 47.0791 3
      vertex 39.7815 47.0791 3
      vertex 40 45 3
    endloop
  endfacet
  facet normal 0 0 1
    outer loop
      vertex 60.8645 49.0674 3
      vertex 39.1355 49.0674 3
      vertex 39.7815 47.0791 3
    endloop
  endfacet
  facet normal 0 0 1
    outer loop
      vertex 61.9098 50.8779 3
      vertex 38.0902 50.8779 3
      vertex 39.1355 49.0674 3
    endloop
  endfacet
  facet normal 0 0 1
    outer loop
      vertex 63.3087 52.4314 3
      vertex 36.6913 52.4314 3
      vertex 38.0902 50.8779 3
    endloop
  endfacet
  facet normal 0 0 1
    outer loop
      vertex 65 53.6603 3
      vertex 35 53.6603 3
      vertex 36.6913 52.4314 3
    endloop
  endfacet
  facet normal 0 0 1
    outer loop
      vertex 65 53.6603 3
      vertex 20 65 3
      vertex 35 53.6603 3
    endloop
  endfacet
  facet normal 0 0 1
    outer loop
      vertex 35 53.6603 3
      vertex 20 65 3
      vertex 33.0902 54.5106 3
    endloop
  endfacet
  facet normal 0 0 1
    outer loop
      vertex 33.0902 54.5106 3
      vertex 20 65 3
      vertex 31.0453 54.9452 3
    endloop
  endfacet
  facet normal 0 0 1
    outer loop
      vertex 31.0453 54.9452 3
      vertex 20 65 3
      vertex 28.9547 54.9452 3
    endloop
  endfacet
  facet normal 0 0 1
    outer loop
      vertex 20 65 3
      vertex 26.9098 54.5106 3
      vertex 28.9547 54.9452 3
    endloop
  endfacet
  facet normal 0 0 1
    outer loop
      vertex 20 65 3
      vertex 25 53.6603 3
      vertex 26.9098 54.5106 3
    endloop
  endfacet
  facet normal 0 0 1
    outer loop
      vertex 20 65 3
      vertex 23.3087 52.4314 3
      vertex 25 53.6603 3
    endloop
  endfacet
  facet normal 0 0 1
    outer loop
      vertex 20 65 3
      vertex 21.9098 50.8779 3
      vertex 23.3087 52.4314 3
    endloop
  endfacet
  facet normal 0 0 1
    outer loop
      vertex 0 50 3
      vertex 21.9098 50.8779 3
      vertex 20 65 3
    endloop
  endfacet
  facet normal 0 0 1
    outer loop
      vertex 21.9098 50.8779 3
      vertex 0 50 3
      vertex 20.8645 49.0674 3
    endloop
  endfacet
  facet normal 0 0 1
    outer loop
      vertex 20.8645 49.0674 3
      vertex 0 50 3
      vertex 20.2185 47.0791 3
    endloop
  endfacet
  facet normal 0 0 1
    outer loop
      vertex 20.2185 47.0791 3
      vertex 0 50 3
      vertex 20 45 3
    endloop
  endfacet
  facet normal 0 0 1
    outer loop
      vertex 10 15 3
      vertex 20.2185 22.0791 3
      vertex 10 35 3
    endloop
  endfacet
  facet normal 0 0 1
    outer loop
      vertex 20 45 3
      vertex 0 50 3
      vertex 10 35 3
    endloop
  endfacet
  facet normal 0 0 1
    outer loop
      vertex 10 35 3
      vertex 0 50 3
      vertex 0 30 3
    endloop
  endfacet
  facet normal 0 0 1
    outer loop
      vertex 90 65 3
      vertex 79.7815 42.9209 3
      vertex 90 0 3
    endloop
  endfacet
  facet normal -0 0 1
    outer loop
      vertex 79.7815 17.9209 3
      vertex 90 0 3
      vertex 80 20 3
    endloop
  endfacet
  facet normal -0 0 1
    outer loop
      vertex 79.1355 15.9326 3
      vertex 90 0 3
      vertex 79.7815 17.9209 3
    endloop
  endfacet
  facet normal -0 0 1
    outer loop
      vertex 78.0902 14.1221 3
      vertex 90 0 3
      vertex 79.1355 15.9326 3
    endloop
  endfacet
  facet normal -0 0 1
    outer loop
      vertex 76.6913 12.5686 3
      vertex 90 0 3
      vertex 78.0902 14.1221 3
    endloop
  endfacet
  facet normal -0 0 1
    outer loop
      vertex 75 11.3397 3
      vertex 90 0 3
      vertex 76.6913 12.5686 3
    endloop
  endfacet
  facet normal -0 0 1
    outer loop
      vertex 73.0902 10.4894 3
      vertex 90 0 3
      vertex 75 11.3397 3
    endloop
  endfacet
  facet normal -0 0 1
    outer loop
      vertex 71.0453 10.0548 3
      vertex 90 0 3
      vertex 73.0902 10.4894 3
    endloop
  endfacet
  facet normal -0 0 1
    outer loop
      vertex 68.9547 10.0548 3
      vertex 90 0 3
      vertex 71.0453 10.0548 3
    endloop
  endfacet
  facet normal 0 0 1
    outer loop
      vertex 66.9098 10.4894 3
      vertex 90 0 3
      vertex 68.9547 10.0548 3
    endloop
  endfacet
  facet normal 0 0 1
    outer loop
      vertex 33.0902 10.4894 3
      vertex 66.9098 10.4894 3
      vertex 65 11.3397 3
    endloop
  endfacet
  facet normal 0 0 1
    outer loop
      vertex 60.2185 22.0791 3
      vertex 40 20 3
      vertex 60 20 3
    endloop
  endfacet
  facet normal 0 0 1
    outer loop
      vertex 60 20 3
      vertex 40 20 3
      vertex 60.2185 17.9209 3
    endloop
  endfacet
  facet normal 0 0 1
    outer loop
      vertex 39.7815 17.9209 3
      vertex 60.2185 17.9209 3
      vertex 40 20 3
    endloop
  endfacet
  facet normal 0 0 1
    outer loop
      vertex 60.2185 17.9209 3
      vertex 39.7815 17.9209 3
      vertex 60.8645 15.9326 3
    endloop
  endfacet
  facet normal 0 0 1
    outer loop
      vertex 39.1355 15.9326 3
      vertex 60.8645 15.9326 3
      vertex 39.7815 17.9209 3
    endloop
  endfacet
  facet normal 0 0 1
    outer loop
      vertex 60.8645 15.9326 3
      vertex 39.1355 15.9326 3
      vertex 61.9098 14.1221 3
    endloop
  endfacet
  facet normal 0 0 1
    outer loop
      vertex 38.0902 14.1221 3
      vertex 61.9098 14.1221 3
      vertex 39.1355 15.9326 3
    endloop
  endfacet
  facet normal 0 0 1
    outer loop
      vertex 61.9098 14.1221 3
      vertex 38.0902 14.1221 3
      vertex 63.3087 12.5686 3
    endloop
  endfacet
  facet normal 0 0 1
    outer loop
      vertex 36.6913 12.5686 3
      vertex 63.3087 12.5686 3
      vertex 38.0902 14.1221 3
    endloop
  endfacet
  facet normal 0 0 1
    outer loop
      vertex 63.3087 12.5686 3
      vertex 36.6913 12.5686 3
      vertex 65 11.3397 3
    endloop
  endfacet
  facet normal 0 0 1
    outer loop
      vertex 35 11.3397 3
      vertex 65 11.3397 3
      vertex 36.6913 12.5686 3
    endloop
  endfacet
  facet normal 0 0 1
    outer loop
      vertex 33.0902 10.4894 3
      vertex 65 11.3397 3
      vertex 35 11.3397 3
    endloop
  endfacet
  facet normal 0 0 1
    outer loop
      vertex 66.9098 10.4894 3
      vertex 33.0902 10.4894 3
      vertex 90 0 3
    endloop
  endfacet
  facet normal -0 0 1
    outer loop
      vertex 31.0453 10.0548 3
      vertex 90 0 3
      vertex 33.0902 10.4894 3
    endloop
  endfacet
  facet normal 0 0 1
    outer loop
      vertex 0 0 3
      vertex 31.0453 10.0548 3
      vertex 28.9547 10.0548 3
    endloop
  endfacet
  facet normal 0 0 1
    outer loop
      vertex 20.2185 22.0791 3
      vertex 10 15 3
      vertex 20 20 3
    endloop
  endfacet
  facet normal 0 0 1
    outer loop
      vertex 20 20 3
      vertex 10 15 3
      vertex 20.2185 17.9209 3
    endloop
  endfacet
  facet normal 0 0 1
    outer loop
      vertex 20.2185 17.9209 3
      vertex 10 15 3
      vertex 20.8645 15.9326 3
    endloop
  endfacet
  facet normal -0 0 1
    outer loop
      vertex 10 15 3
      vertex 21.9098 14.1221 3
      vertex 20.8645 15.9326 3
    endloop
  endfacet
  facet normal 0 0 1
    outer loop
      vertex 10 15 3
      vertex 23.3087 12.5686 3
      vertex 21.9098 14.1221 3
    endloop
  endfacet
  facet normal 0 0 1
    outer loop
      vertex 0 0 3
      vertex 23.3087 12.5686 3
      vertex 10 15 3
    endloop
  endfacet
  facet normal 0 0 1
    outer loop
      vertex 23.3087 12.5686 3
      vertex 0 0 3
      vertex 25 11.3397 3
    endloop
  endfacet
  facet normal 0 0 1
    outer loop
      vertex 31.0453 10.0548 3
      vertex 0 0 3
      vertex 90 0 3
    endloop
  endfacet
  facet normal 0 0 1
    outer loop
      vertex 26.9098 10.4894 3
      vertex 0 0 3
      vertex 28.9547 10.0548 3
    endloop
  endfacet
  facet normal 0 0 1
    outer loop
      vertex 25 11.3397 3
      vertex 0 0 3
      vertex 26.9098 10.4894 3
    endloop
  endfacet
  facet normal 0 0 1
    outer loop
      vertex 0 0 3
      vertex 10 15 3
      vertex 0 20 3
    endloop
  endfacet
  facet normal 0 1 -0
    outer loop
      vertex 90 65 0
      vertex 20 65 3
      vertex 90 65 3
    endloop
  endfacet
  facet normal 0 1 0
    outer loop
      vertex 20 65 3
      vertex 90 65 0
      vertex 20 65 0
    endloop
  endfacet
  facet normal -0.6 0.8 0
    outer loop
      vertex 20 65 0
      vertex 0 50 3
      vertex 20 65 3
    endloop
  endfacet
  facet normal -0.6 0.8 0
    outer loop
      vertex 0 50 3
      vertex 20 65 0
      vertex 0 50 0
    endloop
  endfacet
  facet normal -1 0 0
    outer loop
      vertex 0 30 0
      vertex 0 50 3
      vertex 0 50 0
    endloop
  endfacet
  facet normal -1 -0 0
    outer loop
      vertex 0 50 3
      vertex 0 30 0
      vertex 0 30 3
    endloop
  endfacet
  facet normal 0.447214 -0.894427 0
    outer loop
      vertex 0 30 0
      vertex 10 35 3
      vertex 0 30 3
    endloop
  endfacet
  facet normal 0.447214 -0.894427 0
    outer loop
      vertex 10 35 3
      vertex 0 30 0
      vertex 10 35 0
    endloop
  endfacet
  facet normal -1 0 0
    outer loop
      vertex 10 15 0
      vertex 10 35 3
      vertex 10 35 0
    endloop
  endfacet
  facet normal -1 -0 0
    outer loop
      vertex 10 35 3
      vertex 10 15 0
      vertex 10 15 3
    endloop
  endfacet
  facet normal 0.447214 0.894427 -0
    outer loop
      vertex 10 15 0
      vertex 0 20 3
      vertex 10 15 3
    endloop
  endfacet
  facet normal 0.447214 0.894427 0
    outer loop
      vertex 0 20 3
      vertex 10 15 0
      vertex 0 20 0
    endloop
  endfacet
  facet normal -1 0 0
    outer loop
      vertex 0 0 0
      vertex 0 20 3
      vertex 0 20 0
    endloop
  endfacet
  facet normal -1 -0 0
    outer loop
      vertex 0 20 3
      vertex 0 0 0
      vertex 0 0 3
    endloop
  endfacet
  facet normal 0 -1 0
    outer loop
      vertex 0 0 0
      vertex 90 0 3
      vertex 0 0 3
    endloop
  endfacet
  facet normal 0 -1 -0
    outer loop
      vertex 90 0 3
      vertex 0 0 0
      vertex 90 0 0
    endloop
  endfacet
  facet normal 1 -0 0
    outer loop
      vertex 90 0 3
      vertex 90 65 0
      vertex 90 65 3
    endloop
  endfacet
  facet normal 1 0 0
    outer loop
      vertex 90 65 0
      vertex 90 0 3
      vertex 90 0 0
    endloop
  endfacet
  facet normal -0.866026 -0.499999 0
    outer loop
      vertex 39.1355 49.0674 0
      vertex 38.0902 50.8779 3
      vertex 38.0902 50.8779 0
    endloop
  endfacet
  facet normal -0.866026 -0.499999 0
    outer loop
      vertex 38.0902 50.8779 3
      vertex 39.1355 49.0674 0
      vertex 39.1355 49.0674 3
    endloop
  endfacet
  facet normal -0.743145 -0.669131 0
    outer loop
      vertex 38.0902 50.8779 0
      vertex 36.6913 52.4314 3
      vertex 36.6913 52.4314 0
    endloop
  endfacet
  facet normal -0.743145 -0.669131 0
    outer loop
      vertex 36.6913 52.4314 3
      vertex 38.0902 50.8779 0
      vertex 38.0902 50.8779 3
    endloop
  endfacet
  facet normal -0.20791 -0.978148 0
    outer loop
      vertex 31.0453 54.9452 0
      vertex 33.0902 54.5106 3
      vertex 31.0453 54.9452 3
    endloop
  endfacet
  facet normal -0.20791 -0.978148 -0
    outer loop
      vertex 33.0902 54.5106 3
      vertex 31.0453 54.9452 0
      vertex 33.0902 54.5106 0
    endloop
  endfacet
  facet normal 0.587785 -0.809017 0
    outer loop
      vertex 23.3087 52.4314 0
      vertex 25 53.6603 3
      vertex 23.3087 52.4314 3
    endloop
  endfacet
  facet normal 0.587785 -0.809017 0
    outer loop
      vertex 25 53.6603 3
      vertex 23.3087 52.4314 0
      vertex 25 53.6603 0
    endloop
  endfacet
  facet normal 0.951057 -0.309016 0
    outer loop
      vertex 20.2185 47.0791 3
      vertex 20.8645 49.0674 0
      vertex 20.8645 49.0674 3
    endloop
  endfacet
  facet normal 0.951057 -0.309016 0
    outer loop
      vertex 20.8645 49.0674 0
      vertex 20.2185 47.0791 3
      vertex 20.2185 47.0791 0
    endloop
  endfacet
  facet normal 0.743145 -0.669131 0
    outer loop
      vertex 21.9098 50.8779 3
      vertex 23.3087 52.4314 0
      vertex 23.3087 52.4314 3
    endloop
  endfacet
  facet normal 0.743145 -0.669131 0
    outer loop
      vertex 23.3087 52.4314 0
      vertex 21.9098 50.8779 3
      vertex 21.9098 50.8779 0
    endloop
  endfacet
  facet normal -0.994522 0.104529 0
    outer loop
      vertex 39.7815 42.9209 0
      vertex 40 45 3
      vertex 40 45 0
    endloop
  endfacet
  facet normal -0.994522 0.104529 0
    outer loop
      vertex 40 45 3
      vertex 39.7815 42.9209 0
      vertex 39.7815 42.9209 3
    endloop
  endfacet
  facet normal -0.587785 -0.809017 0
    outer loop
      vertex 35 53.6603 0
      vertex 36.6913 52.4314 3
      vertex 35 53.6603 3
    endloop
  endfacet
  facet normal -0.587785 -0.809017 -0
    outer loop
      vertex 36.6913 52.4314 3
      vertex 35 53.6603 0
      vertex 36.6913 52.4314 0
    endloop
  endfacet
  facet normal 0.20791 -0.978148 0
    outer loop
      vertex 26.9098 54.5106 0
      vertex 28.9547 54.9452 3
      vertex 26.9098 54.5106 3
    endloop
  endfacet
  facet normal 0.20791 -0.978148 0
    outer loop
      vertex 28.9547 54.9452 3
      vertex 26.9098 54.5106 0
      vertex 28.9547 54.9452 0
    endloop
  endfacet
  facet normal -0.406737 -0.913545 0
    outer loop
      vertex 33.0902 54.5106 0
      vertex 35 53.6603 3
      vertex 33.0902 54.5106 3
    endloop
  endfacet
  facet normal -0.406737 -0.913545 -0
    outer loop
      vertex 35 53.6603 3
      vertex 33.0902 54.5106 0
      vertex 35 53.6603 0
    endloop
  endfacet
  facet normal 0.994522 0.104529 0
    outer loop
      vertex 20.2185 42.9209 3
      vertex 20 45 0
      vertex 20 45 3
    endloop
  endfacet
  facet normal 0.994522 0.104529 0
    outer loop
      vertex 20 45 0
      vertex 20.2185 42.9209 3
      vertex 20.2185 42.9209 0
    endloop
  endfacet
  facet normal 0.866025 -0.5 0
    outer loop
      vertex 20.8645 49.0674 3
      vertex 21.9098 50.8779 0
      vertex 21.9098 50.8779 3
    endloop
  endfacet
  facet normal 0.866025 -0.5 0
    outer loop
      vertex 21.9098 50.8779 0
      vertex 20.8645 49.0674 3
      vertex 20.8645 49.0674 0
    endloop
  endfacet
  facet normal 0.406737 -0.913545 0
    outer loop
      vertex 25 53.6603 0
      vertex 26.9098 54.5106 3
      vertex 25 53.6603 3
    endloop
  endfacet
  facet normal 0.406737 -0.913545 0
    outer loop
      vertex 26.9098 54.5106 3
      vertex 25 53.6603 0
      vertex 26.9098 54.5106 0
    endloop
  endfacet
  facet normal -0.994522 -0.104529 0
    outer loop
      vertex 40 45 0
      vertex 39.7815 47.0791 3
      vertex 39.7815 47.0791 0
    endloop
  endfacet
  facet normal -0.994522 -0.104529 0
    outer loop
      vertex 39.7815 47.0791 3
      vertex 40 45 0
      vertex 40 45 3
    endloop
  endfacet
  facet normal -0.587785 0.809017 0
    outer loop
      vertex 36.6913 37.5686 0
      vertex 35 36.3397 3
      vertex 36.6913 37.5686 3
    endloop
  endfacet
  facet normal -0.587785 0.809017 0
    outer loop
      vertex 35 36.3397 3
      vertex 36.6913 37.5686 0
      vertex 35 36.3397 0
    endloop
  endfacet
  facet normal -0.866026 0.499999 0
    outer loop
      vertex 38.0902 39.1221 0
      vertex 39.1355 40.9326 3
      vertex 39.1355 40.9326 0
    endloop
  endfacet
  facet normal -0.866026 0.499999 0
    outer loop
      vertex 39.1355 40.9326 3
      vertex 38.0902 39.1221 0
      vertex 38.0902 39.1221 3
    endloop
  endfacet
  facet normal 0 1 -0
    outer loop
      vertex 31.0453 35.0548 0
      vertex 28.9547 35.0548 3
      vertex 31.0453 35.0548 3
    endloop
  endfacet
  facet normal 0 1 0
    outer loop
      vertex 28.9547 35.0548 3
      vertex 31.0453 35.0548 0
      vertex 28.9547 35.0548 0
    endloop
  endfacet
  facet normal -0.406737 0.913545 0
    outer loop
      vertex 35 36.3397 0
      vertex 33.0902 35.4894 3
      vertex 35 36.3397 3
    endloop
  endfacet
  facet normal -0.406737 0.913545 0
    outer loop
      vertex 33.0902 35.4894 3
      vertex 35 36.3397 0
      vertex 33.0902 35.4894 0
    endloop
  endfacet
  facet normal -0.951056 -0.309017 0
    outer loop
      vertex 39.7815 47.0791 0
      vertex 39.1355 49.0674 3
      vertex 39.1355 49.0674 0
    endloop
  endfacet
  facet normal -0.951056 -0.309017 0
    outer loop
      vertex 39.1355 49.0674 3
      vertex 39.7815 47.0791 0
      vertex 39.7815 47.0791 3
    endloop
  endfacet
  facet normal 0 -1 0
    outer loop
      vertex 28.9547 54.9452 0
      vertex 31.0453 54.9452 3
      vertex 28.9547 54.9452 3
    endloop
  endfacet
  facet normal 0 -1 -0
    outer loop
      vertex 31.0453 54.9452 3
      vertex 28.9547 54.9452 0
      vertex 31.0453 54.9452 0
    endloop
  endfacet
  facet normal 0.994522 -0.104529 0
    outer loop
      vertex 20 45 3
      vertex 20.2185 47.0791 0
      vertex 20.2185 47.0791 3
    endloop
  endfacet
  facet normal 0.994522 -0.104529 0
    outer loop
      vertex 20.2185 47.0791 0
      vertex 20 45 3
      vertex 20 45 0
    endloop
  endfacet
  facet normal 0.951057 0.309016 0
    outer loop
      vertex 20.8645 40.9326 3
      vertex 20.2185 42.9209 0
      vertex 20.2185 42.9209 3
    endloop
  endfacet
  facet normal 0.951057 0.309016 0
    outer loop
      vertex 20.2185 42.9209 0
      vertex 20.8645 40.9326 3
      vertex 20.8645 40.9326 0
    endloop
  endfacet
  facet normal -0.743145 0.669131 0
    outer loop
      vertex 36.6913 37.5686 0
      vertex 38.0902 39.1221 3
      vertex 38.0902 39.1221 0
    endloop
  endfacet
  facet normal -0.743145 0.669131 0
    outer loop
      vertex 38.0902 39.1221 3
      vertex 36.6913 37.5686 0
      vertex 36.6913 37.5686 3
    endloop
  endfacet
  facet normal -0.951056 0.309017 0
    outer loop
      vertex 39.1355 40.9326 0
      vertex 39.7815 42.9209 3
      vertex 39.7815 42.9209 0
    endloop
  endfacet
  facet normal -0.951056 0.309017 0
    outer loop
      vertex 39.7815 42.9209 3
      vertex 39.1355 40.9326 0
      vertex 39.1355 40.9326 3
    endloop
  endfacet
  facet normal 0.406737 0.913545 -0
    outer loop
      vertex 26.9098 35.4894 0
      vertex 25 36.3397 3
      vertex 26.9098 35.4894 3
    endloop
  endfacet
  facet normal 0.406737 0.913545 0
    outer loop
      vertex 25 36.3397 3
      vertex 26.9098 35.4894 0
      vertex 25 36.3397 0
    endloop
  endfacet
  facet normal -0.207912 0.978148 0
    outer loop
      vertex 33.0902 35.4894 0
      vertex 31.0453 35.0548 3
      vertex 33.0902 35.4894 3
    endloop
  endfacet
  facet normal -0.207912 0.978148 0
    outer loop
      vertex 31.0453 35.0548 3
      vertex 33.0902 35.4894 0
      vertex 31.0453 35.0548 0
    endloop
  endfacet
  facet normal 0.866025 0.5 0
    outer loop
      vertex 21.9098 39.1221 3
      vertex 20.8645 40.9326 0
      vertex 20.8645 40.9326 3
    endloop
  endfacet
  facet normal 0.866025 0.5 0
    outer loop
      vertex 20.8645 40.9326 0
      vertex 21.9098 39.1221 3
      vertex 21.9098 39.1221 0
    endloop
  endfacet
  facet normal 0.587785 0.809017 -0
    outer loop
      vertex 25 36.3397 0
      vertex 23.3087 37.5686 3
      vertex 25 36.3397 3
    endloop
  endfacet
  facet normal 0.587785 0.809017 0
    outer loop
      vertex 23.3087 37.5686 3
      vertex 25 36.3397 0
      vertex 23.3087 37.5686 0
    endloop
  endfacet
  facet normal 0.743145 0.669131 0
    outer loop
      vertex 23.3087 37.5686 3
      vertex 21.9098 39.1221 0
      vertex 21.9098 39.1221 3
    endloop
  endfacet
  facet normal 0.743145 0.669131 0
    outer loop
      vertex 21.9098 39.1221 0
      vertex 23.3087 37.5686 3
      vertex 23.3087 37.5686 0
    endloop
  endfacet
  facet normal 0.207912 0.978148 -0
    outer loop
      vertex 28.9547 35.0548 0
      vertex 26.9098 35.4894 3
      vertex 28.9547 35.0548 3
    endloop
  endfacet
  facet normal 0.207912 0.978148 0
    outer loop
      vertex 26.9098 35.4894 3
      vertex 28.9547 35.0548 0
      vertex 26.9098 35.4894 0
    endloop
  endfacet
  facet normal -0.866026 -0.499999 0
    outer loop
      vertex 79.1355 49.0674 0
      vertex 78.0902 50.8779 3
      vertex 78.0902 50.8779 0
    endloop
  endfacet
  facet normal -0.866026 -0.499999 0
    outer loop
      vertex 78.0902 50.8779 3
      vertex 79.1355 49.0674 0
      vertex 79.1355 49.0674 3
    endloop
  endfacet
  facet normal -0.743145 -0.669131 0
    outer loop
      vertex 78.0902 50.8779 0
      vertex 76.6913 52.4314 3
      vertex 76.6913 52.4314 0
    endloop
  endfacet
  facet normal -0.743145 -0.669131 0
    outer loop
      vertex 76.6913 52.4314 3
      vertex 78.0902 50.8779 0
      vertex 78.0902 50.8779 3
    endloop
  endfacet
  facet normal -0.20791 -0.978148 0
    outer loop
      vertex 71.0453 54.9452 0
      vertex 73.0902 54.5106 3
      vertex 71.0453 54.9452 3
    endloop
  endfacet
  facet normal -0.20791 -0.978148 -0
    outer loop
      vertex 73.0902 54.5106 3
      vertex 71.0453 54.9452 0
      vertex 73.0902 54.5106 0
    endloop
  endfacet
  facet normal 0.587785 -0.809017 0
    outer loop
      vertex 63.3087 52.4314 0
      vertex 65 53.6603 3
      vertex 63.3087 52.4314 3
    endloop
  endfacet
  facet normal 0.587785 -0.809017 0
    outer loop
      vertex 65 53.6603 3
      vertex 63.3087 52.4314 0
      vertex 65 53.6603 0
    endloop
  endfacet
  facet normal 0.951057 -0.309016 0
    outer loop
      vertex 60.2185 47.0791 3
      vertex 60.8645 49.0674 0
      vertex 60.8645 49.0674 3
    endloop
  endfacet
  facet normal 0.951057 -0.309016 0
    outer loop
      vertex 60.8645 49.0674 0
      vertex 60.2185 47.0791 3
      vertex 60.2185 47.0791 0
    endloop
  endfacet
  facet normal 0.743145 -0.669131 0
    outer loop
      vertex 61.9098 50.8779 3
      vertex 63.3087 52.4314 0
      vertex 63.3087 52.4314 3
    endloop
  endfacet
  facet normal 0.743145 -0.669131 0
    outer loop
      vertex 63.3087 52.4314 0
      vertex 61.9098 50.8779 3
      vertex 61.9098 50.8779 0
    endloop
  endfacet
  facet normal -0.994522 0.104527 0
    outer loop
      vertex 79.7815 42.9209 0
      vertex 80 45 3
      vertex 80 45 0
    endloop
  endfacet
  facet normal -0.994522 0.104527 0
    outer loop
      vertex 80 45 3
      vertex 79.7815 42.9209 0
      vertex 79.7815 42.9209 3
    endloop
  endfacet
  facet normal -0.587785 -0.809017 0
    outer loop
      vertex 75 53.6603 0
      vertex 76.6913 52.4314 3
      vertex 75 53.6603 3
    endloop
  endfacet
  facet normal -0.587785 -0.809017 -0
    outer loop
      vertex 76.6913 52.4314 3
      vertex 75 53.6603 0
      vertex 76.6913 52.4314 0
    endloop
  endfacet
  facet normal 0.20791 -0.978148 0
    outer loop
      vertex 66.9098 54.5106 0
      vertex 68.9547 54.9452 3
      vertex 66.9098 54.5106 3
    endloop
  endfacet
  facet normal 0.20791 -0.978148 0
    outer loop
      vertex 68.9547 54.9452 3
      vertex 66.9098 54.5106 0
      vertex 68.9547 54.9452 0
    endloop
  endfacet
  facet normal -0.406737 -0.913545 0
    outer loop
      vertex 73.0902 54.5106 0
      vertex 75 53.6603 3
      vertex 73.0902 54.5106 3
    endloop
  endfacet
  facet normal -0.406737 -0.913545 -0
    outer loop
      vertex 75 53.6603 3
      vertex 73.0902 54.5106 0
      vertex 75 53.6603 0
    endloop
  endfacet
  facet normal 0.994522 0.104529 0
    outer loop
      vertex 60.2185 42.9209 3
      vertex 60 45 0
      vertex 60 45 3
    endloop
  endfacet
  facet normal 0.994522 0.104529 0
    outer loop
      vertex 60 45 0
      vertex 60.2185 42.9209 3
      vertex 60.2185 42.9209 0
    endloop
  endfacet
  facet normal 0.866025 -0.5 0
    outer loop
      vertex 60.8645 49.0674 3
      vertex 61.9098 50.8779 0
      vertex 61.9098 50.8779 3
    endloop
  endfacet
  facet normal 0.866025 -0.5 0
    outer loop
      vertex 61.9098 50.8779 0
      vertex 60.8645 49.0674 3
      vertex 60.8645 49.0674 0
    endloop
  endfacet
  facet normal 0.406737 -0.913545 0
    outer loop
      vertex 65 53.6603 0
      vertex 66.9098 54.5106 3
      vertex 65 53.6603 3
    endloop
  endfacet
  facet normal 0.406737 -0.913545 0
    outer loop
      vertex 66.9098 54.5106 3
      vertex 65 53.6603 0
      vertex 66.9098 54.5106 0
    endloop
  endfacet
  facet normal -0.994522 -0.104527 0
    outer loop
      vertex 80 45 0
      vertex 79.7815 47.0791 3
      vertex 79.7815 47.0791 0
    endloop
  endfacet
  facet normal -0.994522 -0.104527 0
    outer loop
      vertex 79.7815 47.0791 3
      vertex 80 45 0
      vertex 80 45 3
    endloop
  endfacet
  facet normal 0.743145 0.669131 0
    outer loop
      vertex 63.3087 37.5686 3
      vertex 61.9098 39.1221 0
      vertex 61.9098 39.1221 3
    endloop
  endfacet
  facet normal 0.743145 0.669131 0
    outer loop
      vertex 61.9098 39.1221 0
      vertex 63.3087 37.5686 3
      vertex 63.3087 37.5686 0
    endloop
  endfacet
  facet normal -0.406737 0.913545 0
    outer loop
      vertex 75 36.3397 0
      vertex 73.0902 35.4894 3
      vertex 75 36.3397 3
    endloop
  endfacet
  facet normal -0.406737 0.913545 0
    outer loop
      vertex 73.0902 35.4894 3
      vertex 75 36.3397 0
      vertex 73.0902 35.4894 0
    endloop
  endfacet
  facet normal -0.587785 0.809017 0
    outer loop
      vertex 76.6913 37.5686 0
      vertex 75 36.3397 3
      vertex 76.6913 37.5686 3
    endloop
  endfacet
  facet normal -0.587785 0.809017 0
    outer loop
      vertex 75 36.3397 3
      vertex 76.6913 37.5686 0
      vertex 75 36.3397 0
    endloop
  endfacet
  facet normal -0.951056 -0.309019 0
    outer loop
      vertex 79.7815 47.0791 0
      vertex 79.1355 49.0674 3
      vertex 79.1355 49.0674 0
    endloop
  endfacet
  facet normal -0.951056 -0.309019 0
    outer loop
      vertex 79.1355 49.0674 3
      vertex 79.7815 47.0791 0
      vertex 79.7815 47.0791 3
    endloop
  endfacet
  facet normal 0 -1 0
    outer loop
      vertex 68.9547 54.9452 0
      vertex 71.0453 54.9452 3
      vertex 68.9547 54.9452 3
    endloop
  endfacet
  facet normal 0 -1 -0
    outer loop
      vertex 71.0453 54.9452 3
      vertex 68.9547 54.9452 0
      vertex 71.0453 54.9452 0
    endloop
  endfacet
  facet normal 0.994522 -0.104529 0
    outer loop
      vertex 60 45 3
      vertex 60.2185 47.0791 0
      vertex 60.2185 47.0791 3
    endloop
  endfacet
  facet normal 0.994522 -0.104529 0
    outer loop
      vertex 60.2185 47.0791 0
      vertex 60 45 3
      vertex 60 45 0
    endloop
  endfacet
  facet normal -0.866026 0.499999 0
    outer loop
      vertex 78.0902 39.1221 0
      vertex 79.1355 40.9326 3
      vertex 79.1355 40.9326 0
    endloop
  endfacet
  facet normal -0.866026 0.499999 0
    outer loop
      vertex 79.1355 40.9326 3
      vertex 78.0902 39.1221 0
      vertex 78.0902 39.1221 3
    endloop
  endfacet
  facet normal 0.951057 0.309016 0
    outer loop
      vertex 60.8645 40.9326 3
      vertex 60.2185 42.9209 0
      vertex 60.2185 42.9209 3
    endloop
  endfacet
  facet normal 0.951057 0.309016 0
    outer loop
      vertex 60.2185 42.9209 0
      vertex 60.8645 40.9326 3
      vertex 60.8645 40.9326 0
    endloop
  endfacet
  facet normal -0.951056 0.309019 0
    outer loop
      vertex 79.1355 40.9326 0
      vertex 79.7815 42.9209 3
      vertex 79.7815 42.9209 0
    endloop
  endfacet
  facet normal -0.951056 0.309019 0
    outer loop
      vertex 79.7815 42.9209 3
      vertex 79.1355 40.9326 0
      vertex 79.1355 40.9326 3
    endloop
  endfacet
  facet normal 0 1 -0
    outer loop
      vertex 71.0453 35.0548 0
      vertex 68.9547 35.0548 3
      vertex 71.0453 35.0548 3
    endloop
  endfacet
  facet normal 0 1 0
    outer loop
      vertex 68.9547 35.0548 3
      vertex 71.0453 35.0548 0
      vertex 68.9547 35.0548 0
    endloop
  endfacet
  facet normal -0.207912 0.978148 0
    outer loop
      vertex 73.0902 35.4894 0
      vertex 71.0453 35.0548 3
      vertex 73.0902 35.4894 3
    endloop
  endfacet
  facet normal -0.207912 0.978148 0
    outer loop
      vertex 71.0453 35.0548 3
      vertex 73.0902 35.4894 0
      vertex 71.0453 35.0548 0
    endloop
  endfacet
  facet normal 0.866025 0.5 0
    outer loop
      vertex 61.9098 39.1221 3
      vertex 60.8645 40.9326 0
      vertex 60.8645 40.9326 3
    endloop
  endfacet
  facet normal 0.866025 0.5 0
    outer loop
      vertex 60.8645 40.9326 0
      vertex 61.9098 39.1221 3
      vertex 61.9098 39.1221 0
    endloop
  endfacet
  facet normal 0.587785 0.809017 -0
    outer loop
      vertex 65 36.3397 0
      vertex 63.3087 37.5686 3
      vertex 65 36.3397 3
    endloop
  endfacet
  facet normal 0.587785 0.809017 0
    outer loop
      vertex 63.3087 37.5686 3
      vertex 65 36.3397 0
      vertex 63.3087 37.5686 0
    endloop
  endfacet
  facet normal -0.743145 0.669131 0
    outer loop
      vertex 76.6913 37.5686 0
      vertex 78.0902 39.1221 3
      vertex 78.0902 39.1221 0
    endloop
  endfacet
  facet normal -0.743145 0.669131 0
    outer loop
      vertex 78.0902 39.1221 3
      vertex 76.6913 37.5686 0
      vertex 76.6913 37.5686 3
    endloop
  endfacet
  facet normal 0.207912 0.978148 -0
    outer loop
      vertex 68.9547 35.0548 0
      vertex 66.9098 35.4894 3
      vertex 68.9547 35.0548 3
    endloop
  endfacet
  facet normal 0.207912 0.978148 0
    outer loop
      vertex 66.9098 35.4894 3
      vertex 68.9547 35.0548 0
      vertex 66.9098 35.4894 0
    endloop
  endfacet
  facet normal 0.406737 0.913545 -0
    outer loop
      vertex 66.9098 35.4894 0
      vertex 65 36.3397 3
      vertex 66.9098 35.4894 3
    endloop
  endfacet
  facet normal 0.406737 0.913545 0
    outer loop
      vertex 65 36.3397 3
      vertex 66.9098 35.4894 0
      vertex 65 36.3397 0
    endloop
  endfacet
  facet normal -0.866026 -0.499998 0
    outer loop
      vertex 39.1355 24.0674 0
      vertex 38.0902 25.8779 3
      vertex 38.0902 25.8779 0
    endloop
  endfacet
  facet normal -0.866026 -0.499998 0
    outer loop
      vertex 38.0902 25.8779 3
      vertex 39.1355 24.0674 0
      vertex 39.1355 24.0674 3
    endloop
  endfacet
  facet normal 0.994522 -0.104529 0
    outer loop
      vertex 20 20 3
      vertex 20.2185 22.0791 0
      vertex 20.2185 22.0791 3
    endloop
  endfacet
  facet normal 0.994522 -0.104529 0
    outer loop
      vertex 20.2185 22.0791 0
      vertex 20 20 3
      vertex 20 20 0
    endloop
  endfacet
  facet normal -0.743144 -0.669131 0
    outer loop
      vertex 38.0902 25.8779 0
      vertex 36.6913 27.4314 3
      vertex 36.6913 27.4314 0
    endloop
  endfacet
  facet normal -0.743144 -0.669131 0
    outer loop
      vertex 36.6913 27.4314 3
      vertex 38.0902 25.8779 0
      vertex 38.0902 25.8779 3
    endloop
  endfacet
  facet normal -0.207911 -0.978148 0
    outer loop
      vertex 31.0453 29.9452 0
      vertex 33.0902 29.5106 3
      vertex 31.0453 29.9452 3
    endloop
  endfacet
  facet normal -0.207911 -0.978148 -0
    outer loop
      vertex 33.0902 29.5106 3
      vertex 31.0453 29.9452 0
      vertex 33.0902 29.5106 0
    endloop
  endfacet
  facet normal 0.587785 -0.809017 0
    outer loop
      vertex 23.3087 27.4314 0
      vertex 25 28.6603 3
      vertex 23.3087 27.4314 3
    endloop
  endfacet
  facet normal 0.587785 -0.809017 0
    outer loop
      vertex 25 28.6603 3
      vertex 23.3087 27.4314 0
      vertex 25 28.6603 0
    endloop
  endfacet
  facet normal 0.951057 -0.309016 0
    outer loop
      vertex 20.2185 22.0791 3
      vertex 20.8645 24.0674 0
      vertex 20.8645 24.0674 3
    endloop
  endfacet
  facet normal 0.951057 -0.309016 0
    outer loop
      vertex 20.8645 24.0674 0
      vertex 20.2185 22.0791 3
      vertex 20.2185 22.0791 0
    endloop
  endfacet
  facet normal 0.743144 -0.669131 0
    outer loop
      vertex 21.9098 25.8779 3
      vertex 23.3087 27.4314 0
      vertex 23.3087 27.4314 3
    endloop
  endfacet
  facet normal 0.743144 -0.669131 0
    outer loop
      vertex 23.3087 27.4314 0
      vertex 21.9098 25.8779 3
      vertex 21.9098 25.8779 0
    endloop
  endfacet
  facet normal -0.994522 0.104529 0
    outer loop
      vertex 39.7815 17.9209 0
      vertex 40 20 3
      vertex 40 20 0
    endloop
  endfacet
  facet normal -0.994522 0.104529 0
    outer loop
      vertex 40 20 3
      vertex 39.7815 17.9209 0
      vertex 39.7815 17.9209 3
    endloop
  endfacet
  facet normal -0.587785 -0.809017 0
    outer loop
      vertex 35 28.6603 0
      vertex 36.6913 27.4314 3
      vertex 35 28.6603 3
    endloop
  endfacet
  facet normal -0.587785 -0.809017 -0
    outer loop
      vertex 36.6913 27.4314 3
      vertex 35 28.6603 0
      vertex 36.6913 27.4314 0
    endloop
  endfacet
  facet normal 0.207911 -0.978148 0
    outer loop
      vertex 26.9098 29.5106 0
      vertex 28.9547 29.9452 3
      vertex 26.9098 29.5106 3
    endloop
  endfacet
  facet normal 0.207911 -0.978148 0
    outer loop
      vertex 28.9547 29.9452 3
      vertex 26.9098 29.5106 0
      vertex 28.9547 29.9452 0
    endloop
  endfacet
  facet normal -0.406737 -0.913545 0
    outer loop
      vertex 33.0902 29.5106 0
      vertex 35 28.6603 3
      vertex 33.0902 29.5106 3
    endloop
  endfacet
  facet normal -0.406737 -0.913545 -0
    outer loop
      vertex 35 28.6603 3
      vertex 33.0902 29.5106 0
      vertex 35 28.6603 0
    endloop
  endfacet
  facet normal 0.994522 0.104529 0
    outer loop
      vertex 20.2185 17.9209 3
      vertex 20 20 0
      vertex 20 20 3
    endloop
  endfacet
  facet normal 0.994522 0.104529 0
    outer loop
      vertex 20 20 0
      vertex 20.2185 17.9209 3
      vertex 20.2185 17.9209 0
    endloop
  endfacet
  facet normal 0.866026 -0.5 0
    outer loop
      vertex 20.8645 24.0674 3
      vertex 21.9098 25.8779 0
      vertex 21.9098 25.8779 3
    endloop
  endfacet
  facet normal 0.866026 -0.5 0
    outer loop
      vertex 21.9098 25.8779 0
      vertex 20.8645 24.0674 3
      vertex 20.8645 24.0674 0
    endloop
  endfacet
  facet normal 0.406737 -0.913545 0
    outer loop
      vertex 25 28.6603 0
      vertex 26.9098 29.5106 3
      vertex 25 28.6603 3
    endloop
  endfacet
  facet normal 0.406737 -0.913545 0
    outer loop
      vertex 26.9098 29.5106 3
      vertex 25 28.6603 0
      vertex 26.9098 29.5106 0
    endloop
  endfacet
  facet normal -0.994522 -0.104529 0
    outer loop
      vertex 40 20 0
      vertex 39.7815 22.0791 3
      vertex 39.7815 22.0791 0
    endloop
  endfacet
  facet normal -0.994522 -0.104529 0
    outer loop
      vertex 39.7815 22.0791 3
      vertex 40 20 0
      vertex 40 20 3
    endloop
  endfacet
  facet normal -0.951056 0.309018 0
    outer loop
      vertex 39.1355 15.9326 0
      vertex 39.7815 17.9209 3
      vertex 39.7815 17.9209 0
    endloop
  endfacet
  facet normal -0.951056 0.309018 0
    outer loop
      vertex 39.7815 17.9209 3
      vertex 39.1355 15.9326 0
      vertex 39.1355 15.9326 3
    endloop
  endfacet
  facet normal 0.406737 0.913545 -0
    outer loop
      vertex 26.9098 10.4894 0
      vertex 25 11.3397 3
      vertex 26.9098 10.4894 3
    endloop
  endfacet
  facet normal 0.406737 0.913545 0
    outer loop
      vertex 25 11.3397 3
      vertex 26.9098 10.4894 0
      vertex 25 11.3397 0
    endloop
  endfacet
  facet normal 0.743145 0.669131 0
    outer loop
      vertex 23.3087 12.5686 3
      vertex 21.9098 14.1221 0
      vertex 21.9098 14.1221 3
    endloop
  endfacet
  facet normal 0.743145 0.669131 0
    outer loop
      vertex 21.9098 14.1221 0
      vertex 23.3087 12.5686 3
      vertex 23.3087 12.5686 0
    endloop
  endfacet
  facet normal -0.406737 0.913545 0
    outer loop
      vertex 35 11.3397 0
      vertex 33.0902 10.4894 3
      vertex 35 11.3397 3
    endloop
  endfacet
  facet normal -0.406737 0.913545 0
    outer loop
      vertex 33.0902 10.4894 3
      vertex 35 11.3397 0
      vertex 33.0902 10.4894 0
    endloop
  endfacet
  facet normal -0.587785 0.809017 0
    outer loop
      vertex 36.6913 12.5686 0
      vertex 35 11.3397 3
      vertex 36.6913 12.5686 3
    endloop
  endfacet
  facet normal -0.587785 0.809017 0
    outer loop
      vertex 35 11.3397 3
      vertex 36.6913 12.5686 0
      vertex 35 11.3397 0
    endloop
  endfacet
  facet normal -0.951056 -0.309018 0
    outer loop
      vertex 39.7815 22.0791 0
      vertex 39.1355 24.0674 3
      vertex 39.1355 24.0674 0
    endloop
  endfacet
  facet normal -0.951056 -0.309018 0
    outer loop
      vertex 39.1355 24.0674 3
      vertex 39.7815 22.0791 0
      vertex 39.7815 22.0791 3
    endloop
  endfacet
  facet normal 0 -1 0
    outer loop
      vertex 28.9547 29.9452 0
      vertex 31.0453 29.9452 3
      vertex 28.9547 29.9452 3
    endloop
  endfacet
  facet normal 0 -1 -0
    outer loop
      vertex 31.0453 29.9452 3
      vertex 28.9547 29.9452 0
      vertex 31.0453 29.9452 0
    endloop
  endfacet
  facet normal -0.866026 0.499998 0
    outer loop
      vertex 38.0902 14.1221 0
      vertex 39.1355 15.9326 3
      vertex 39.1355 15.9326 0
    endloop
  endfacet
  facet normal -0.866026 0.499998 0
    outer loop
      vertex 39.1355 15.9326 3
      vertex 38.0902 14.1221 0
      vertex 38.0902 14.1221 3
    endloop
  endfacet
  facet normal 0.951057 0.309016 0
    outer loop
      vertex 20.8645 15.9326 3
      vertex 20.2185 17.9209 0
      vertex 20.2185 17.9209 3
    endloop
  endfacet
  facet normal 0.951057 0.309016 0
    outer loop
      vertex 20.2185 17.9209 0
      vertex 20.8645 15.9326 3
      vertex 20.8645 15.9326 0
    endloop
  endfacet
  facet normal 0.587785 0.809017 -0
    outer loop
      vertex 25 11.3397 0
      vertex 23.3087 12.5686 3
      vertex 25 11.3397 3
    endloop
  endfacet
  facet normal 0.587785 0.809017 0
    outer loop
      vertex 23.3087 12.5686 3
      vertex 25 11.3397 0
      vertex 23.3087 12.5686 0
    endloop
  endfacet
  facet normal 0.207911 0.978148 -0
    outer loop
      vertex 28.9547 10.0548 0
      vertex 26.9098 10.4894 3
      vertex 28.9547 10.0548 3
    endloop
  endfacet
  facet normal 0.207911 0.978148 0
    outer loop
      vertex 26.9098 10.4894 3
      vertex 28.9547 10.0548 0
      vertex 26.9098 10.4894 0
    endloop
  endfacet
  facet normal -0.207911 0.978148 0
    outer loop
      vertex 33.0902 10.4894 0
      vertex 31.0453 10.0548 3
      vertex 33.0902 10.4894 3
    endloop
  endfacet
  facet normal -0.207911 0.978148 0
    outer loop
      vertex 31.0453 10.0548 3
      vertex 33.0902 10.4894 0
      vertex 31.0453 10.0548 0
    endloop
  endfacet
  facet normal 0.866026 0.5 0
    outer loop
      vertex 21.9098 14.1221 3
      vertex 20.8645 15.9326 0
      vertex 20.8645 15.9326 3
    endloop
  endfacet
  facet normal 0.866026 0.5 0
    outer loop
      vertex 20.8645 15.9326 0
      vertex 21.9098 14.1221 3
      vertex 21.9098 14.1221 0
    endloop
  endfacet
  facet normal -0.743145 0.669131 0
    outer loop
      vertex 36.6913 12.5686 0
      vertex 38.0902 14.1221 3
      vertex 38.0902 14.1221 0
    endloop
  endfacet
  facet normal -0.743145 0.669131 0
    outer loop
      vertex 38.0902 14.1221 3
      vertex 36.6913 12.5686 0
      vertex 36.6913 12.5686 3
    endloop
  endfacet
  facet normal 0 1 -0
    outer loop
      vertex 31.0453 10.0548 0
      vertex 28.9547 10.0548 3
      vertex 31.0453 10.0548 3
    endloop
  endfacet
  facet normal 0 1 0
    outer loop
      vertex 28.9547 10.0548 3
      vertex 31.0453 10.0548 0
      vertex 28.9547 10.0548 0
    endloop
  endfacet
  facet normal -0.866026 -0.499998 0
    outer loop
      vertex 79.1355 24.0674 0
      vertex 78.0902 25.8779 3
      vertex 78.0902 25.8779 0
    endloop
  endfacet
  facet normal -0.866026 -0.499998 0
    outer loop
      vertex 78.0902 25.8779 3
      vertex 79.1355 24.0674 0
      vertex 79.1355 24.0674 3
    endloop
  endfacet
  facet normal 0.994522 -0.104529 0
    outer loop
      vertex 60 20 3
      vertex 60.2185 22.0791 0
      vertex 60.2185 22.0791 3
    endloop
  endfacet
  facet normal 0.994522 -0.104529 0
    outer loop
      vertex 60.2185 22.0791 0
      vertex 60 20 3
      vertex 60 20 0
    endloop
  endfacet
  facet normal -0.743144 -0.669131 0
    outer loop
      vertex 78.0902 25.8779 0
      vertex 76.6913 27.4314 3
      vertex 76.6913 27.4314 0
    endloop
  endfacet
  facet normal -0.743144 -0.669131 0
    outer loop
      vertex 76.6913 27.4314 3
      vertex 78.0902 25.8779 0
      vertex 78.0902 25.8779 3
    endloop
  endfacet
  facet normal -0.207911 -0.978148 0
    outer loop
      vertex 71.0453 29.9452 0
      vertex 73.0902 29.5106 3
      vertex 71.0453 29.9452 3
    endloop
  endfacet
  facet normal -0.207911 -0.978148 -0
    outer loop
      vertex 73.0902 29.5106 3
      vertex 71.0453 29.9452 0
      vertex 73.0902 29.5106 0
    endloop
  endfacet
  facet normal 0.587785 -0.809017 0
    outer loop
      vertex 63.3087 27.4314 0
      vertex 65 28.6603 3
      vertex 63.3087 27.4314 3
    endloop
  endfacet
  facet normal 0.587785 -0.809017 0
    outer loop
      vertex 65 28.6603 3
      vertex 63.3087 27.4314 0
      vertex 65 28.6603 0
    endloop
  endfacet
  facet normal 0.951057 -0.309016 0
    outer loop
      vertex 60.2185 22.0791 3
      vertex 60.8645 24.0674 0
      vertex 60.8645 24.0674 3
    endloop
  endfacet
  facet normal 0.951057 -0.309016 0
    outer loop
      vertex 60.8645 24.0674 0
      vertex 60.2185 22.0791 3
      vertex 60.2185 22.0791 0
    endloop
  endfacet
  facet normal 0.743144 -0.669131 0
    outer loop
      vertex 61.9098 25.8779 3
      vertex 63.3087 27.4314 0
      vertex 63.3087 27.4314 3
    endloop
  endfacet
  facet normal 0.743144 -0.669131 0
    outer loop
      vertex 63.3087 27.4314 0
      vertex 61.9098 25.8779 3
      vertex 61.9098 25.8779 0
    endloop
  endfacet
  facet normal -0.994522 0.104527 0
    outer loop
      vertex 79.7815 17.9209 0
      vertex 80 20 3
      vertex 80 20 0
    endloop
  endfacet
  facet normal -0.994522 0.104527 0
    outer loop
      vertex 80 20 3
      vertex 79.7815 17.9209 0
      vertex 79.7815 17.9209 3
    endloop
  endfacet
  facet normal -0.951056 -0.309019 0
    outer loop
      vertex 79.7815 22.0791 0
      vertex 79.1355 24.0674 3
      vertex 79.1355 24.0674 0
    endloop
  endfacet
  facet normal -0.951056 -0.309019 0
    outer loop
      vertex 79.1355 24.0674 3
      vertex 79.7815 22.0791 0
      vertex 79.7815 22.0791 3
    endloop
  endfacet
  facet normal -0.587785 -0.809017 0
    outer loop
      vertex 75 28.6603 0
      vertex 76.6913 27.4314 3
      vertex 75 28.6603 3
    endloop
  endfacet
  facet normal -0.587785 -0.809017 -0
    outer loop
      vertex 76.6913 27.4314 3
      vertex 75 28.6603 0
      vertex 76.6913 27.4314 0
    endloop
  endfacet
  facet normal 0.207911 -0.978148 0
    outer loop
      vertex 66.9098 29.5106 0
      vertex 68.9547 29.9452 3
      vertex 66.9098 29.5106 3
    endloop
  endfacet
  facet normal 0.207911 -0.978148 0
    outer loop
      vertex 68.9547 29.9452 3
      vertex 66.9098 29.5106 0
      vertex 68.9547 29.9452 0
    endloop
  endfacet
  facet normal -0.406737 -0.913545 0
    outer loop
      vertex 73.0902 29.5106 0
      vertex 75 28.6603 3
      vertex 73.0902 29.5106 3
    endloop
  endfacet
  facet normal -0.406737 -0.913545 -0
    outer loop
      vertex 75 28.6603 3
      vertex 73.0902 29.5106 0
      vertex 75 28.6603 0
    endloop
  endfacet
  facet normal 0.994522 0.104529 0
    outer loop
      vertex 60.2185 17.9209 3
      vertex 60 20 0
      vertex 60 20 3
    endloop
  endfacet
  facet normal 0.994522 0.104529 0
    outer loop
      vertex 60 20 0
      vertex 60.2185 17.9209 3
      vertex 60.2185 17.9209 0
    endloop
  endfacet
  facet normal 0.866026 -0.5 0
    outer loop
      vertex 60.8645 24.0674 3
      vertex 61.9098 25.8779 0
      vertex 61.9098 25.8779 3
    endloop
  endfacet
  facet normal 0.866026 -0.5 0
    outer loop
      vertex 61.9098 25.8779 0
      vertex 60.8645 24.0674 3
      vertex 60.8645 24.0674 0
    endloop
  endfacet
  facet normal 0.406737 -0.913545 0
    outer loop
      vertex 65 28.6603 0
      vertex 66.9098 29.5106 3
      vertex 65 28.6603 3
    endloop
  endfacet
  facet normal 0.406737 -0.913545 0
    outer loop
      vertex 66.9098 29.5106 3
      vertex 65 28.6603 0
      vertex 66.9098 29.5106 0
    endloop
  endfacet
  facet normal -0.994522 -0.104527 0
    outer loop
      vertex 80 20 0
      vertex 79.7815 22.0791 3
      vertex 79.7815 22.0791 0
    endloop
  endfacet
  facet normal -0.994522 -0.104527 0
    outer loop
      vertex 79.7815 22.0791 3
      vertex 80 20 0
      vertex 80 20 3
    endloop
  endfacet
  facet normal -0.951056 0.309019 0
    outer loop
      vertex 79.1355 15.9326 0
      vertex 79.7815 17.9209 3
      vertex 79.7815 17.9209 0
    endloop
  endfacet
  facet normal -0.951056 0.309019 0
    outer loop
      vertex 79.7815 17.9209 3
      vertex 79.1355 15.9326 0
      vertex 79.1355 15.9326 3
    endloop
  endfacet
  facet normal 0.743145 0.669131 0
    outer loop
      vertex 63.3087 12.5686 3
      vertex 61.9098 14.1221 0
      vertex 61.9098 14.1221 3
    endloop
  endfacet
  facet normal 0.743145 0.669131 0
    outer loop
      vertex 61.9098 14.1221 0
      vertex 63.3087 12.5686 3
      vertex 63.3087 12.5686 0
    endloop
  endfacet
  facet normal -0.406737 0.913545 0
    outer loop
      vertex 75 11.3397 0
      vertex 73.0902 10.4894 3
      vertex 75 11.3397 3
    endloop
  endfacet
  facet normal -0.406737 0.913545 0
    outer loop
      vertex 73.0902 10.4894 3
      vertex 75 11.3397 0
      vertex 73.0902 10.4894 0
    endloop
  endfacet
  facet normal -0.587785 0.809017 0
    outer loop
      vertex 76.6913 12.5686 0
      vertex 75 11.3397 3
      vertex 76.6913 12.5686 3
    endloop
  endfacet
  facet normal -0.587785 0.809017 0
    outer loop
      vertex 75 11.3397 3
      vertex 76.6913 12.5686 0
      vertex 75 11.3397 0
    endloop
  endfacet
  facet normal 0 -1 0
    outer loop
      vertex 68.9547 29.9452 0
      vertex 71.0453 29.9452 3
      vertex 68.9547 29.9452 3
    endloop
  endfacet
  facet normal 0 -1 -0
    outer loop
      vertex 71.0453 29.9452 3
      vertex 68.9547 29.9452 0
      vertex 71.0453 29.9452 0
    endloop
  endfacet
  facet normal -0.866026 0.499998 0
    outer loop
      vertex 78.0902 14.1221 0
      vertex 79.1355 15.9326 3
      vertex 79.1355 15.9326 0
    endloop
  endfacet
  facet normal -0.866026 0.499998 0
    outer loop
      vertex 79.1355 15.9326 3
      vertex 78.0902 14.1221 0
      vertex 78.0902 14.1221 3
    endloop
  endfacet
  facet normal 0.951057 0.309016 0
    outer loop
      vertex 60.8645 15.9326 3
      vertex 60.2185 17.9209 0
      vertex 60.2185 17.9209 3
    endloop
  endfacet
  facet normal 0.951057 0.309016 0
    outer loop
      vertex 60.2185 17.9209 0
      vertex 60.8645 15.9326 3
      vertex 60.8645 15.9326 0
    endloop
  endfacet
  facet normal 0 1 -0
    outer loop
      vertex 71.0453 10.0548 0
      vertex 68.9547 10.0548 3
      vertex 71.0453 10.0548 3
    endloop
  endfacet
  facet normal 0 1 0
    outer loop
      vertex 68.9547 10.0548 3
      vertex 71.0453 10.0548 0
      vertex 68.9547 10.0548 0
    endloop
  endfacet
  facet normal -0.207912 0.978148 0
    outer loop
      vertex 73.0902 10.4894 0
      vertex 71.0453 10.0548 3
      vertex 73.0902 10.4894 3
    endloop
  endfacet
  facet normal -0.207912 0.978148 0
    outer loop
      vertex 71.0453 10.0548 3
      vertex 73.0902 10.4894 0
      vertex 71.0453 10.0548 0
    endloop
  endfacet
  facet normal 0.866026 0.5 0
    outer loop
      vertex 61.9098 14.1221 3
      vertex 60.8645 15.9326 0
      vertex 60.8645 15.9326 3
    endloop
  endfacet
  facet normal 0.866026 0.5 0
    outer loop
      vertex 60.8645 15.9326 0
      vertex 61.9098 14.1221 3
      vertex 61.9098 14.1221 0
    endloop
  endfacet
  facet normal 0.587785 0.809017 -0
    outer loop
      vertex 65 11.3397 0
      vertex 63.3087 12.5686 3
      vertex 65 11.3397 3
    endloop
  endfacet
  facet normal 0.587785 0.809017 0
    outer loop
      vertex 63.3087 12.5686 3
      vertex 65 11.3397 0
      vertex 63.3087 12.5686 0
    endloop
  endfacet
  facet normal -0.743145 0.669131 0
    outer loop
      vertex 76.6913 12.5686 0
      vertex 78.0902 14.1221 3
      vertex 78.0902 14.1221 0
    endloop
  endfacet
  facet normal -0.743145 0.669131 0
    outer loop
      vertex 78.0902 14.1221 3
      vertex 76.6913 12.5686 0
      vertex 76.6913 12.5686 3
    endloop
  endfacet
  facet normal 0.207912 0.978148 -0
    outer loop
      vertex 68.9547 10.0548 0
      vertex 66.9098 10.4894 3
      vertex 68.9547 10.0548 3
    endloop
  endfacet
  facet normal 0.207912 0.978148 0
    outer loop
      vertex 66.9098 10.4894 3
      vertex 68.9547 10.0548 0
      vertex 66.9098 10.4894 0
    endloop
  endfacet
  facet normal 0.406737 0.913545 -0
    outer loop
      vertex 66.9098 10.4894 0
      vertex 65 11.3397 3
      vertex 66.9098 10.4894 3
    endloop
  endfacet
  facet normal 0.406737 0.913545 0
    outer loop
      vertex 65 11.3397 3
      vertex 66.9098 10.4894 0
      vertex 65 11.3397 0
    endloop
  endfacet
endsolid OpenSCAD_Model
